<?xml version="1.0" encoding="UTF-8" standalone="no"?>
<!DOCTYPE svg PUBLIC "-//W3C//DTD SVG 1.1//EN"
 "http://www.w3.org/Graphics/SVG/1.1/DTD/svg11.dtd">
<!-- Generated by graphviz version 2.38.0 (20140413.2041)
 -->
<!-- Title: dependency&#45;cruiser output Pages: 1 -->
<svg width="174pt" height="136pt"
 viewBox="0.00 0.00 174.00 136.00" xmlns="http://www.w3.org/2000/svg" xmlns:xlink="http://www.w3.org/1999/xlink">
<g id="graph0" class="graph" transform="scale(1 1) rotate(0) translate(4 132)">
<title>dependency&#45;cruiser output</title>
<g id="clust1" class="cluster"><title>cluster_src</title>
<path fill="#ffffff" stroke="black" stroke-width="2" d="M25,-68C25,-68 146,-68 146,-68 152,-68 158,-74 158,-80 158,-80 158,-108 158,-108 158,-114 152,-120 146,-120 146,-120 25,-120 25,-120 19,-120 13,-114 13,-108 13,-108 13,-80 13,-80 13,-74 19,-68 25,-68"/>
<text text-anchor="middle" x="85.5" y="-108.8" font-family="Helvetica,sans-Serif" font-weight="bold" font-size="9.00">src</text>
</g>
<g id="clust2" class="cluster"><title>cluster_test</title>
<path fill="#ffffff" stroke="black" stroke-width="2" d="M20,-8C20,-8 76,-8 76,-8 82,-8 88,-14 88,-20 88,-20 88,-48 88,-48 88,-54 82,-60 76,-60 76,-60 20,-60 20,-60 14,-60 8,-54 8,-48 8,-48 8,-20 8,-20 8,-14 14,-8 20,-8"/>
<text text-anchor="middle" x="48" y="-48.8" font-family="Helvetica,sans-Serif" font-weight="bold" font-size="9.00">test</text>
</g>
<!-- src/app.js -->
<g id="node1" class="node"><title>src/app.js</title>
<g id="a_node1"><a xlink:href="src/app.js" xlink:title="app.js">
<path fill="#ffffcc" stroke="black" d="M69,-94C69,-94 27,-94 27,-94 24,-94 21,-91 21,-88 21,-88 21,-82 21,-82 21,-79 24,-76 27,-76 27,-76 69,-76 69,-76 72,-76 75,-79 75,-82 75,-82 75,-88 75,-88 75,-91 72,-94 69,-94"/>
<text text-anchor="middle" x="48" y="-82.8" font-family="Helvetica,sans-Serif" font-size="9.00">app.js</text>
</a>
</g>
</g>
<!-- src/hello.js -->
<g id="node2" class="node"><title>src/hello.js</title>
<g id="a_node2"><a xlink:href="src/hello.js" xlink:title="hello.js">
<path fill="#ffffcc" stroke="black" d="M144,-94C144,-94 102,-94 102,-94 99,-94 96,-91 96,-88 96,-88 96,-82 96,-82 96,-79 99,-76 102,-76 102,-76 144,-76 144,-76 147,-76 150,-79 150,-82 150,-82 150,-88 150,-88 150,-91 147,-94 144,-94"/>
<text text-anchor="middle" x="123" y="-82.8" font-family="Helvetica,sans-Serif" font-size="9.00">hello.js</text>
</a>
</g>
</g>
<!-- src/app.js&#45;&gt;src/hello.js -->
<g id="edge1" class="edge"><title>src/app.js&#45;&gt;src/hello.js</title>
<path fill="none" stroke="#999999" d="M75.3547,-85C80.378,-85 85.6797,-85 90.8363,-85"/>
<polygon fill="#999999" stroke="#999999" points="90.9288,-86.7501 95.9288,-85 90.9287,-83.2501 90.9288,-86.7501"/>
</g>
<!-- test/hello.test.js -->
<g id="node3" class="node"><title>test/hello.test.js</title>
<g id="a_node3"><a xlink:href="test/hello.test.js" xlink:title="hello.test.js">
<path fill="#ffffcc" stroke="black" d="M74,-34C74,-34 22,-34 22,-34 19,-34 16,-31 16,-28 16,-28 16,-22 16,-22 16,-19 19,-16 22,-16 22,-16 74,-16 74,-16 77,-16 80,-19 80,-22 80,-22 80,-28 80,-28 80,-31 77,-34 74,-34"/>
<text text-anchor="middle" x="48" y="-22.8" font-family="Helvetica,sans-Serif" font-size="9.00">hello.test.js</text>
</a>
</g>
</g>
<!-- test/hello.test.js&#45;&gt;src/hello.js -->
<g id="edge2" class="edge"><title>test/hello.test.js&#45;&gt;src/hello.js</title>
<path fill="none" stroke="#999999" d="M60.0871,-34.1127C72.5215,-44.3328 92.7674,-60.9732 106.702,-72.4265"/>
<polygon fill="#999999" stroke="#999999" points="105.835,-73.9786 110.809,-75.8015 108.057,-71.2747 105.835,-73.9786"/>
</g>
</g>
</svg>
